<?xml version="1.0" encoding="utf-8"?>
<!-- Generator: Adobe Illustrator 22.1.0, SVG Export Plug-In . SVG Version: 6.00 Build 0)  -->
<svg version="1.1" id="Layer_1" xmlns="http://www.w3.org/2000/svg" xmlns:xlink="http://www.w3.org/1999/xlink" x="0px" y="0px"
	 viewBox="0 0 61.3 61.3" style="enable-background:new 0 0 61.3 61.3;" xml:space="preserve">
<style type="text/css">
	.st0{fill:#4D4D4D;stroke:#FAFFFC;stroke-width:2;stroke-miterlimit:10;}
</style>
<title>Asset 3</title>
<g id="Layer_2_1_">
	<g id="Backgrounds">
		<circle class="st0" cx="30.4" cy="30.9" r="5.5"/>
		<path class="st0" d="M37.2,17.4H23.5c-1.8-0.1-3.5,0.6-4.9,1.8c-1.2,1.3-1.8,3.1-1.8,4.9v13.7c-0.1,1.9,0.6,3.7,1.9,5
			c1.3,1.2,3.1,1.8,4.9,1.8h13.6c1.8,0.1,3.5-0.5,4.9-1.8c1.3-1.3,2-3.1,1.9-4.9V24.2c0.1-1.8-0.6-3.5-1.7-4.9
			C40.9,18,39.1,17.3,37.2,17.4z M30.4,39.4c-4.7,0-8.5-3.8-8.5-8.5c0-4.7,3.8-8.5,8.5-8.5c4.7,0,8.5,3.8,8.5,8.5
			S35.1,39.4,30.4,39.4C30.4,39.4,30.4,39.4,30.4,39.4z M39.2,24c-1.1,0-2-0.9-2-2s0.9-2,2-2s2,0.9,2,2S40.4,24,39.2,24z"/>
		<path class="st0" d="M30.6,0C13.7,0,0,13.7,0,30.6s13.7,30.6,30.6,30.6s30.6-13.7,30.6-30.6l0,0C61.3,13.7,47.6,0,30.6,0
			C30.7,0,30.7,0,30.6,0z M47,37.9c0.1,2.6-0.9,5.2-2.8,7.1c-1.9,1.8-4.4,2.7-7,2.6H23.7c-2.6,0.1-5.1-0.8-7-2.6
			c-1.9-1.9-2.8-4.5-2.7-7.1V24.2c0-5.7,3.9-9.7,9.7-9.7h13.7c2.6-0.1,5.1,0.9,7,2.7c1.8,1.9,2.7,4.4,2.6,7V37.9z"/>
	</g>
</g>
</svg>
