<svg id="Layer_1" data-name="Layer 1" xmlns="http://www.w3.org/2000/svg" viewBox="0 0 63.3 63.3"><defs><style>.cls-1{fill:#4d4d4d;stroke:#fafffc;stroke-miterlimit:10;stroke-width:2px;}</style></defs><title>instagram_inverse</title><g id="Layer_2" data-name="Layer 2"><g id="Backgrounds"><circle class="cls-1" cx="31.4" cy="31.9" r="5.48"/><path class="cls-1" d="M37.25,17.44H23.55a6.79,6.79,0,0,0-4.86,1.75,6.79,6.79,0,0,0-1.75,4.86v13.7a6.87,6.87,0,0,0,1.87,5,7,7,0,0,0,4.86,1.75H37.25a6.78,6.78,0,0,0,4.86-1.75A6.34,6.34,0,0,0,44,37.88V24.17a7,7,0,0,0-1.74-4.86A6.7,6.7,0,0,0,37.25,17.44ZM30.4,39.37a8.47,8.47,0,1,1,8.47-8.47,8.47,8.47,0,0,1-8.47,8.47Zm8.85-15.32a2,2,0,1,1,2-2A2,2,0,0,1,39.25,24.05Z" transform="translate(1 1)"/><path class="cls-1" d="M30.65,0A30.65,30.65,0,1,0,61.3,30.65h0A30.63,30.63,0,0,0,30.69,0ZM47,37.88A9.88,9.88,0,0,1,44.23,45a9.69,9.69,0,0,1-7,2.61H23.67a9.69,9.69,0,0,1-7-2.61A9.42,9.42,0,0,1,14,37.88V24.17c0-5.73,3.87-9.72,9.72-9.72H37.38a9.56,9.56,0,0,1,7,2.74,9.52,9.52,0,0,1,2.62,7Z" transform="translate(1 1)"/></g></g></svg>