<svg xmlns="http://www.w3.org/2000/svg" viewBox="0 0 318.1 71.67"><defs><style>.cls-1{fill:#fafffc;}.cls-2,.cls-3{fill:none;stroke:#fafffc;}.cls-2,.cls-3,.cls-4{stroke-miterlimit:10;}.cls-2{stroke-width:5px;}.cls-3{stroke-width:2px;}.cls-4{fill:#4d4d4d;stroke:#4d4d4d;}</style></defs><title>logo_final</title><g id="Layer_2" data-name="Layer 2"><g id="Layer_1-2" data-name="Layer 1"><path class="cls-1" d="M28,57.86,22.17,41.48H19.11V57.86H0V1.14H21.86c19.35,0,25.06,8.22,25.06,19.74,0,6.11-2.27,12.3-8,16.29L49.2,57.86ZM19,28.64h3.13c4.7,0,5.64-3,5.64-6,0-2.89-.94-5.79-5.64-5.79H19Z"/><path class="cls-1" d="M51.55,35.45c0-13.79,9.64-23.27,23.66-23.27,15.74,0,24.6,10.11,22.72,26.87H69.72c0,4.47,2.51,7.37,6.35,7.37,2.82,0,4.78-1.33,5.33-3.76l16.53,1.41C95.5,53.63,87.74,58.72,75.52,58.72,61,58.72,51.55,49.55,51.55,35.45Zm30.08-6c-.16-3.68-2.66-6-5.87-6s-5.72,2.35-5.88,6Z"/><ellipse class="cls-2" cx="134.35" cy="30.39" rx="27.04" ry="26.06"/><line class="cls-3" x1="105.52" y1="30.33" x2="136.07" y2="30.33"/><line class="cls-3" x1="116.54" y1="11.59" x2="152.66" y2="47.71"/><line class="cls-3" x1="114.71" y1="51.14" x2="152.91" y2="12.94"/><line class="cls-3" x1="135.57" y1="5.81" x2="135.57" y2="54.59"/><polygon class="cls-4" points="144.86 31.06 166.52 17.76 166.17 44.92 144.86 31.06"/><path class="cls-1" d="M183.2,57.23,163.75,14.14h6.61l16,36.63,16-36.63H209L183.13,71.67h-6.46Z"/><path class="cls-1" d="M210.87,35.87c0-13.14,8.81-22.57,21.2-22.57,10.11,0,16.65,4.71,19.84,13.83l-5.25,1.3c-2.58-6.54-7.37-9.81-14.44-9.81-9,0-15.43,7.07-15.43,17.25s6.39,17.26,15.43,17.26a14.61,14.61,0,0,0,14.37-9.81l5.24,1.29c-2.89,8.74-10,13.84-19.76,13.84C219.68,58.45,210.87,49,210.87,35.87Z"/><path class="cls-1" d="M260.72,0h6V57.61h-6Z"/><path class="cls-1" d="M275.54,35.87c0-13.37,8.82-22.57,21.66-22.57,13.45,0,21.74,9.58,20.83,23.71H281.47c.23,10.11,6.38,16.19,16.19,16.19,6.91,0,11.4-2.58,14.13-7.52l5.48,1.21c-3.73,7.53-10.19,11.56-19.69,11.56C284.21,58.45,275.54,49.48,275.54,35.87ZM312.33,32c-.54-8.36-6.16-13.68-15.05-13.68-8.51,0-14.52,5.09-15.58,13.68Z"/></g></g></svg>