<svg id="Layer_1" data-name="Layer 1" xmlns="http://www.w3.org/2000/svg" viewBox="0 0 60.28 60.28"><defs><style>.cls-1{fill:#fafffc;}</style></defs><title>twitter</title><g id="Layer_2" data-name="Layer 2"><g id="Backgrounds"><path class="cls-1" d="M30.14,0A30.14,30.14,0,1,0,60.28,30.14,30.13,30.13,0,0,0,30.14,0ZM45.32,24.06v1c0,10-7.64,21.61-21.61,21.61a21.45,21.45,0,0,1-11.64-3.42,15.7,15.7,0,0,0,1.81.11,15.21,15.21,0,0,0,9.43-3.25,7.6,7.6,0,0,1-7.09-5.28,7.62,7.62,0,0,0,1.43.14,7.48,7.48,0,0,0,2-.27,7.59,7.59,0,0,1-6.09-7.44v-.1a7.45,7.45,0,0,0,3.44,1,7.6,7.6,0,0,1-3.38-6.32,7.52,7.52,0,0,1,1-3.82A21.49,21.49,0,0,0,30.27,26a7.6,7.6,0,0,1,13-6.92,15.2,15.2,0,0,0,4.82-1.85,7.61,7.61,0,0,1-3.34,4.2,15.43,15.43,0,0,0,4.36-1.19A15.16,15.16,0,0,1,45.32,24.06Z" transform="translate(0 0)"/></g></g></svg>